<?xml version="1.0" standalone="no"?>
<!DOCTYPE svg PUBLIC "-//W3C//DTD SVG 20010904//EN"
 "http://www.w3.org/TR/2001/REC-SVG-20010904/DTD/svg10.dtd">
<svg version="1.0" xmlns="http://www.w3.org/2000/svg"
 width="225.000000pt" height="225.000000pt" viewBox="0 0 225.000000 225.000000"
 preserveAspectRatio="xMidYMid meet">
<metadata>
Created by potrace 1.14, written by Peter Selinger 2001-2017
</metadata>
<g transform="translate(0.000000,225.000000) scale(0.100000,-0.100000)"
fill="#000000" stroke="none">
<path d="M678 1219 c-17 -9 -18 -35 -18 -304 0 -256 2 -295 15 -295 13 0 15
38 15 285 l0 285 435 0 435 0 0 -235 c0 -228 1 -235 20 -235 19 0 20 7 20 238
0 219 -2 240 -18 255 -17 15 -63 17 -453 17 -276 0 -440 -4 -451 -11z"/>
<path d="M740 1149 c0 -5 5 -7 10 -4 6 3 10 8 10 11 0 2 -4 4 -10 4 -5 0 -10
-5 -10 -11z"/>
<path d="M1118 1073 c7 -3 16 -2 19 1 4 3 -2 6 -13 5 -11 0 -14 -3 -6 -6z"/>
<path d="M1048 1049 c-16 -11 -28 -26 -28 -32 0 -6 6 -3 13 6 6 9 26 23 42 32
17 8 23 15 15 15 -8 -1 -27 -10 -42 -21z"/>
<path d="M1180 1052 c20 -10 42 -32 52 -52 12 -22 18 -28 18 -16 0 10 -15 33
-34 52 -19 19 -42 34 -52 34 -12 0 -6 -6 16 -18z"/>
<path d="M1000 1008 c0 -29 14 -35 40 -17 13 9 13 10 0 6 -8 -2 -20 5 -27 17
-12 20 -12 20 -13 -6z"/>
<path d="M1214 905 c-16 -13 -16 -14 -1 -9 27 10 20 -12 -14 -40 -17 -14 -27
-26 -22 -26 5 0 22 14 38 30 22 23 31 27 38 18 6 -9 7 -7 3 5 -3 10 -6 23 -6
28 0 13 -14 11 -36 -6z"/>
<path d="M1010 893 c0 -16 57 -62 85 -69 13 -3 34 -4 46 -1 18 3 16 5 -9 6
-41 1 -86 24 -106 53 -9 12 -16 17 -16 11z"/>
<path d="M1015 740 c3 -5 8 -10 11 -10 2 0 4 5 4 10 0 6 -5 10 -11 10 -5 0 -7
-4 -4 -10z"/>
<path d="M1080 739 c0 -5 5 -7 10 -4 6 3 10 8 10 11 0 2 -4 4 -10 4 -5 0 -10
-5 -10 -11z"/>
<path d="M1110 739 c0 -5 5 -7 10 -4 6 3 10 8 10 11 0 2 -4 4 -10 4 -5 0 -10
-5 -10 -11z"/>
<path d="M1145 740 c3 -5 8 -10 11 -10 2 0 4 5 4 10 0 6 -5 10 -11 10 -5 0 -7
-4 -4 -10z"/>
<path d="M1175 740 c3 -5 8 -10 11 -10 2 0 4 5 4 10 0 6 -5 10 -11 10 -5 0 -7
-4 -4 -10z"/>
<path d="M1544 625 c-33 -50 20 -104 71 -71 27 18 34 63 13 84 -21 21 -66 14
-84 -13z m76 -8 c0 -2 -11 -13 -23 -26 -21 -19 -25 -20 -37 -6 -11 13 -10 15
2 10 8 -3 21 1 28 10 11 13 30 21 30 12z"/>
</g>
</svg>
